<?xml version="1.0" standalone="no"?>
<!DOCTYPE svg PUBLIC "-//W3C//DTD SVG 20010904//EN"
 "http://www.w3.org/TR/2001/REC-SVG-20010904/DTD/svg10.dtd">
<svg version="1.0" xmlns="http://www.w3.org/2000/svg"
 width="512.000000pt" height="512.000000pt" viewBox="0 0 512.000000 512.000000"
 preserveAspectRatio="xMidYMid meet">
<metadata>
Created by potrace 1.14, written by Peter Selinger 2001-2017
</metadata>
<g transform="translate(0.000000,512.000000) scale(0.100000,-0.100000)"
fill="#000000" stroke="none">
<path d="M695 4349 c-341 -72 -594 -326 -682 -684 -8 -36 -17 -1307 -8 -1351
11 -62 105 -77 133 -21 8 16 13 216 14 682 l3 660 31 88 c43 120 86 188 174
277 101 103 235 177 371 205 19 4 637 9 1374 10 737 2 1346 4 1353 4 47 3 69
92 31 127 -21 18 -58 19 -1368 20 -1230 0 -1353 -1 -1426 -17z"/>
<path d="M3750 4353 c-43 -31 -42 -101 2 -124 13 -7 128 -12 317 -14 163 -1
303 -5 311 -8 8 -4 27 -8 41 -11 44 -7 162 -57 218 -93 116 -74 225 -204 275
-330 57 -142 56 -108 53 -1233 -1 -569 -6 -1048 -10 -1065 -16 -64 -31 -103
-64 -171 -89 -183 -242 -309 -453 -375 l-75 -24 -1780 0 c-979 1 -1800 4
-1825 7 -230 35 -436 187 -535 394 -62 128 -68 163 -72 439 -2 155 -8 258 -15
272 -23 47 -102 46 -128 -1 -18 -34 -8 -519 13 -596 78 -298 294 -531 578
-623 42 -14 101 -29 130 -33 68 -11 3586 -11 3654 -1 184 28 364 124 497 266
119 127 200 289 226 451 12 71 12 2139 0 2175 -3 11 -9 34 -13 50 -14 61 -66
188 -98 240 -107 174 -278 311 -466 375 -114 38 -162 43 -463 45 -249 2 -301
0 -318 -12z"/>
<path d="M772 3904 c-158 -37 -283 -167 -312 -325 -7 -37 -10 -397 -8 -1055
l3 -999 22 -53 c47 -115 132 -197 252 -243 l56 -22 1755 -2 c1267 -1 1769 2
1805 10 161 36 285 163 315 324 14 73 14 1969 0 2042 -27 144 -132 263 -276
315 -46 16 -155 17 -1807 18 -1238 1 -1772 -2 -1805 -10z m1024 -143 c8 -1 11
-335 12 -1183 0 -651 -1 -1192 -3 -1203 -4 -20 -11 -20 -502 -20 -485 1 -499
2 -543 22 -63 30 -106 72 -134 132 l-24 52 2 1007 1 1007 22 40 c41 76 105
127 178 143 28 5 943 9 991 3z m1360 -3 c5 -5 10 -2358 5 -2398 -1 -3 -271 -5
-601 -5 -526 0 -600 2 -601 15 -1 20 -1 2337 0 2370 l1 25 594 0 c327 0 598
-3 602 -7z m894 -9 c0 -26 -55 -95 -102 -127 -24 -16 -80 -42 -125 -57 -198
-65 -283 -187 -283 -406 0 -80 3 -101 19 -120 l19 -24 274 -3 c150 -2 287 -1
303 2 39 8 68 54 59 91 -13 53 -32 57 -289 57 l-235 0 0 37 c0 106 62 184 176
221 178 59 281 150 330 294 9 25 20 47 25 47 106 15 212 -39 264 -132 l30 -54
1 -1000 c2 -961 1 -1002 -17 -1051 -23 -62 -77 -120 -137 -146 -24 -11 -45
-18 -46 -16 -1 1 -15 29 -30 61 -16 32 -51 81 -78 109 l-50 51 29 26 c145 135
181 321 95 499 -94 194 -350 280 -547 183 -132 -65 -213 -185 -230 -338 -5
-43 -3 -55 17 -77 28 -32 54 -38 90 -20 29 15 35 28 43 92 8 61 27 103 69 150
101 112 281 111 382 -1 147 -164 50 -415 -171 -439 -54 -6 -81 -22 -89 -53
-15 -60 12 -90 90 -100 51 -6 117 -33 149 -62 24 -22 65 -73 65 -82 0 -5 -786
-7 -826 -2 -8 1 -11 338 -11 1199 0 658 1 1199 2 1202 2 3 168 5 369 5 330 0
366 -1 366 -16z"/>
<path d="M1112 3224 c-29 -7 -67 -21 -84 -30 -59 -30 -134 -112 -164 -177
l-29 -62 0 -395 0 -395 27 -57 c130 -277 500 -301 663 -43 52 82 57 129 53
530 l-3 360 -26 56 c-80 170 -262 259 -437 213z m178 -157 c60 -24 88 -52 116
-112 24 -49 24 -54 24 -389 0 -225 -4 -351 -11 -377 -24 -80 -101 -142 -191
-154 -96 -13 -213 63 -238 154 -13 47 -13 695 0 741 12 44 62 105 103 127 69
36 129 39 197 10z"/>
<path d="M2605 3229 c-31 -18 -45 -40 -45 -72 0 -70 -80 -147 -152 -147 -27 0
-61 -25 -71 -52 -10 -27 11 -74 39 -87 29 -13 102 -6 151 14 l33 14 0 -483 c0
-455 1 -485 18 -507 26 -31 88 -31 114 0 17 22 18 56 18 651 0 583 -1 629 -17
648 -22 26 -62 35 -88 21z"/>
</g>
</svg>
